PathFileType	4	(X/Y/Z)	64_1_13_p1_0-167_filt_butterworth.trc
DataRate	CameraRate	NumFrames	NumMarkers	Units	OrigDataRate	OrigDataStartFrame	OrigNumFrames
59.0	59.0	5	27	m	59.0	83	167
Frame#	Time	RHip			RKnee			RAnkle			RBigToe			RSmallToe			RHeel			LHip			LKnee			LAnkle			LBigToe			LSmallToe			LHeel			Neck			Head			Nose			RShoulder			RElbow			RWrist			RThumb			RIndex			RPinky			LShoulder			LElbow			LWrist			LThumb			LIndex			LPinky			
		X1	Y1	Z1	X2	Y2	Z2	X3	Y3	Z3	X4	Y4	Z4	X5	Y5	Z5	X6	Y6	Z6	X7	Y7	Z7	X8	Y8	Z8	X9	Y9	Z9	X10	Y10	Z10	X11	Y11	Z11	X12	Y12	Z12	X13	Y13	Z13	X14	Y14	Z14	X15	Y15	Z15	X16	Y16	Z16	X17	Y17	Z17	X18	Y18	Z18	X19	Y19	Z19	X20	Y20	Z20	X21	Y21	Z21	X22	Y22	Z22	X23	Y23	Z23	X24	Y24	Z24	X25	Y25	Z25	X26	Y26	Z26	X27	Y27	Z27	
83	1.4067796610169492	0.3230812410318422	0.7044154629377732	0.5532794690171066	0.302513736368966	0.979273834782803	0.923677445926056	0.2685819036114085	1.2131139239113284	1.280116662911512	0.2825632443376626	1.0631193300935575	1.4161866452692407	0.3455374145019419	1.0878306043912545	1.3918153367341364	0.2078871132385034	1.3071077585741493	1.3162616465697328	0.1024315804941312	0.6553916952135578	0.579877222462475	0.08072328362498356	0.9294597055059715	0.946168505335101	0.06334551835082784	1.1818873585985008	1.2851341379352008	0.13213275754912923	1.0141517750195057	1.418186971977436	0.05820932494255543	1.0601134512376829	1.407436032342805	0.06513246331907586	1.28270529826161	1.3015829755103305	0.23867954241678624	0.3619022352608119	0.05826671099210934	0.28814840689946875	0.12496300760088808	-0.10649354102893457	0.27593365797305436	0.16442774282777292	0.03329812000248476	0.4064479125666301	0.4433459032064916	0.10273795177765524	0.42506345520427424	0.6532888304951029	0.32364492221491853	0.4435939301799914	0.7117116570235948	0.5968039951574436	0.40558231737497474	0.7321603814167543	0.7127250476424383	0.43193173779639843	0.7378747356974049	0.7430460712908783	0.41480893247019013	0.8178717203364914	0.7006737726562786	0.08066083019168718	0.3578131171507519	0.14268153043929022	-0.011478055734705632	0.5364917821093662	0.350161444924052	-0.014583337098568383	0.6423701893126551	0.5981518298972185	-0.0072465022478926475	0.707597776426746	0.6968655617031753	-0.01810847586083044	0.7000473863325	0.7488316720759571	-0.0222893184960566	0.7186570361153856	0.7352803247286686
84	1.423728813559322	0.32307408821699973	0.704477828816337	0.5533041310822499	0.30270831956097877	0.9792301620522736	0.9237380836864717	0.2685729259214862	1.213185301606612	1.2803389654158626	0.28318467700378774	1.0640680345428164	1.4165739543305962	0.3457370110041522	1.087287807967447	1.391909777538428	0.20824574603036924	1.3106516223127098	1.3188500103019276	0.10022751813532724	0.6549573553964617	0.5802548806666218	0.07915687197206792	0.9303140788635006	0.9469951643166332	0.06329863872397508	1.1823501713028055	1.2852114425556562	0.13548820568542788	1.007688959375765	1.41777028915994	0.058240275725707856	1.0603177867102924	1.4074621638908094	0.06521137068492734	1.284311966215033	1.3025087291073176	0.24164769191783453	0.36266861027590136	0.05625267635616118	0.28955800349565725	0.12829276409827028	-0.10974163053917398	0.27772429236790536	0.1649915988676459	0.03213629318665344	0.40732772898394565	0.44565264682683786	0.10264359237589758	0.4223613138925625	0.6574905706254092	0.3221519872165894	0.4382968442025949	0.7089314238667922	0.5984166693426641	0.40577518380687905	0.7281130796496331	0.7127971270928457	0.4333014607097193	0.7381085945362107	0.7451334998111583	0.41476063403830976	0.8144121471105888	0.7004586413195051	0.08102494849066381	0.35811214781466283	0.14047992974925827	-0.011146143195515549	0.5338706901818022	0.3511743634362403	-0.01449063103184529	0.6414281209883593	0.5994331131829486	-0.008250764695513509	0.70801815026426	0.6998750832120151	-0.01795697260289481	0.6990190652682018	0.7489340265202139	-0.022234392212570113	0.7186772883214343	0.7352002931068127
85	1.4406779661016949	0.3222010876565336	0.7060307847200747	0.553301364454346	0.3026917608820985	0.9795549138217723	0.9238074997013044	0.2685740598891742	1.2132068410539891	1.2804862347742	0.28353876625112256	1.0639734086664356	1.417323969600204	0.345827812777345	1.0868267193662229	1.3919910003706348	0.20862192973461474	1.3124894834060399	1.320903996485027	0.09755655609579927	0.6551905512148996	0.5806288305214755	0.07774492057099879	0.9303291692341803	0.9473235386855685	0.06313520168000707	1.183111706162899	1.2857458433764877	0.13797768426358373	1.0051253569841379	1.4174659220555488	0.058343858446779195	1.0603409326982338	1.4074084801672053	0.06528262875310628	1.285236167742734	1.302821435420439	0.2430897508681383	0.36373323081640874	0.054793435656135994	0.2913857761903544	0.13030485585454812	-0.11188535999899166	0.27982248704231644	0.16532845141721797	0.03169128889979861	0.4085607885279156	0.45036776414452273	0.10255988872368825	0.4203223724502634	0.6607047555097704	0.3210496117279089	0.4343138388815614	0.7087085653030887	0.5991568389919538	0.40610604622952345	0.7259029710506925	0.7124675870073199	0.4334806784415248	0.7385149437718856	0.7478859604724718	0.41514181793175237	0.8106683434019746	0.7009618397322612	0.081474255483356	0.3581021771816631	0.138689799113977	-0.010611000341039668	0.5301263509879053	0.35208742118229347	-0.01448921276949987	0.6414931726941664	0.5998787760466201	-0.008795330869516537	0.7063624698440418	0.7034549975874249	-0.018048961711104188	0.6987900930089466	0.7492081781614754	-0.02210805979733955	0.7186625546166485	0.7351809494009897
86	1.4576271186440677	0.3203059251191156	0.709176474090761	0.5532780334386088	0.3018039479160251	0.9812219958216547	0.9239933516275922	0.268580060511779	1.213176945842747	1.2804805703752955	0.28369667076669314	1.0630907117701687	1.4182341920172277	0.3458863304274401	1.086656814913779	1.3920049921957252	0.20874957778564598	1.3128803889705325	1.3215668308174955	0.09631364978111137	0.6564266051700253	0.5807822741112865	0.07739634141308367	0.9295923943671293	0.9466416477318833	0.06278762921277305	1.1839839227665665	1.2869480977795782	0.138840723599435	1.0061217365228643	1.4173836918188811	0.0584449484679595	1.060260899761012	1.4073256078754341	0.0652997036396133	1.2856871441784818	1.3033365883927637	0.24378137209944042	0.3647109405957167	0.05475074749971909	0.29382596336522293	0.1316348361956816	-0.11309274376393397	0.2823389366149541	0.16499130240223664	0.03198231225691728	0.40956164662778666	0.45594479649654596	0.1026477145625919	0.4195446659922404	0.6620922185644962	0.3210142907331415	0.432877109134062	0.7064342534817086	0.5999082151166154	0.40552506873556726	0.7253526913824122	0.71306971331306	0.43140124430564886	0.7388465988530241	0.7514601366735846	0.4164605908521041	0.8045475747364592	0.7051619354909042	0.08180248527875107	0.3573014995003597	0.13796482390871953	-0.010189635602473188	0.5268916489653028	0.35241069689614984	-0.014511998800576334	0.6417549368647936	0.5999037243770572	-0.007930817458998951	0.7023545506725816	0.7072549588051302	-0.01783233386446928	0.6968325718641689	0.7498512630887268	-0.021999409160600492	0.7186487363148051	0.7351507073009845
87	1.4745762711864407	0.3185349451874487	0.7116262104718175	0.5532912291490911	0.2995268528457298	0.9850622985614172	0.9242400654052885	0.2685886897412303	1.2130893214074534	1.2803573905094472	0.2836244596992035	1.0626143819219047	1.4195275743827014	0.34589561407428493	1.0868068865473977	1.3919684172886244	0.2085312005462789	1.3127302998319728	1.321348119951631	0.09760561916947225	0.6574202444098548	0.5806837869408639	0.07829088289454197	0.9275972211299743	0.9454056693188729	0.06235626516341065	1.184585542577091	1.2884402588699835	0.1386942301957119	1.007783085942528	1.4178677739267846	0.05842187829615227	1.0602737885553812	1.4073460011730494	0.06506977902426339	1.286448071435075	1.3046654944597782	0.24528659154310495	0.36469978147696097	0.05553558167808828	0.29686926272726455	0.1327486292503292	-0.11385845856410595	0.28616357978203716	0.16292310768644055	0.033274353096475764	0.41000910265004054	0.46000275022389947	0.10341441786120548	0.41958373254455156	0.662542587627536	0.32229358066373115	0.4331080397992977	0.7007727609250571	0.6014294389456531	0.40306651805463894	0.725931172792678	0.7155822160718287	0.42637263847392526	0.7396868914812473	0.7560943045298244	0.4184692901363372	0.7971834892336396	0.7129866418964971	0.08236041879053299	0.3551919081899919	0.13823051933202957	-0.009790440207562503	0.524728673481118	0.3521804159965637	-0.014612747487833885	0.642067984986583	0.5998155711279565	-0.005181779423335344	0.6968216205263802	0.7109584296602081	-0.017128326445195904	0.6929106473586819	0.7507681689398246	-0.022052078376078556	0.7187531647540879	0.735147858167646
